# xmcd
#
# Track frame offsets: 
#        150
#        20900
#        36997
#        63592
#        89680
#
# Disc length: 1819 seconds
#
# Revision: 1
# Processed by: cddbd v1.5.2PL0 Copyright (c) Steve Scherf et al.
# Submitted via: ExactAudioCopy v0.95b2
#
DISCID=46071905
DTITLE=Gary Moore - Story of the Blues
DYEAR=1992
DGENRE=Blues
TTITLE0=Story of the Blues
TTITLE1=Movin' down the Road
TTITLE2=King of the Blues (Live)
TTITLE3=Story of the Blues (Long Version)
TTITLE4=Stormy Monday (Live)
EXTD=
EXTT0=
EXTT1=
EXTT2=
EXTT3=
EXTT4=
PLAYORDER=
